<?xml version="1.0" encoding="UTF-8"?>
<svg width="424px" height="424px" viewBox="0 0 424 424" version="1.1" xmlns="http://www.w3.org/2000/svg" xmlns:xlink="http://www.w3.org/1999/xlink">
    <!-- Generator: Sketch 49.1 (51147) - http://www.bohemiancoding.com/sketch -->
    <title>epub</title>
    <desc>Created with Sketch.</desc>
    <defs>
        <polygon id="path-1" points="92 0 257 0 257 336 0 336 0 88"></polygon>
        <polygon id="path-2" points="92 0 257 0 257 336 0 336 0 88"></polygon>
        <polygon id="path-3" points="96 8 96 96 4 96"></polygon>
    </defs>
    <g id="epub" stroke="none" stroke-width="1" fill="none" fill-rule="evenodd">
        <g id="Group" transform="translate(83.500000, 44.000000)">
            <g id="Rectangle-5">
                <use fill="#2E7BCF" fill-rule="evenodd" xlink:href="#path-1"></use>
                <path stroke="#FFFFFF" stroke-width="10" d="M94.0062866,5 L5,90.136448 L5,331 L252,331 L252,5 L94.0062866,5 Z"></path>
            </g>
        </g>
        <g id="Group-2" opacity="0.1" transform="translate(84.273438, 69.000000)" stroke="#FFFFFF" stroke-linecap="square" stroke-width="3">
            <path d="M0.855925008,291 L256.880718,291" id="Line-2-Copy-24"></path>
            <path d="M0.855925008,272 L256.880718,272" id="Line-2-Copy-23"></path>
            <path d="M0.855925008,253 L256.880718,253" id="Line-2-Copy-22"></path>
            <path d="M0.855925008,234 L256.880718,234" id="Line-2-Copy-21"></path>
            <path d="M0.855925008,215 L256.880718,215" id="Line-2-Copy-20"></path>
            <path d="M0.855925008,196 L256.880718,196" id="Line-2-Copy-19"></path>
            <path d="M0.855925008,177 L256.880718,177" id="Line-2-Copy-18"></path>
            <path d="M0.855925008,158 L256.880718,158" id="Line-2-Copy-17"></path>
            <path d="M0.855925008,139 L256.880718,139" id="Line-2-Copy-16"></path>
            <path d="M0.855925008,120 L256.880718,120" id="Line-2-Copy-15"></path>
            <path d="M0.855925008,101 L256.880718,101" id="Line-2-Copy-14"></path>
            <path d="M0.855925008,82 L256.880718,82" id="Line-2-Copy-13"></path>
            <path d="M0.855925008,63 L256.880718,63" id="Line-2-Copy-12"></path>
            <path d="M0.855925008,44 L256.880718,44" id="Line-2-Copy-11"></path>
            <path d="M0.855925008,25 L256.880718,25" id="Line-2-Copy-10"></path>
            <path d="M0.855925008,6 L256.880718,6" id="Line-2-Copy-9"></path>
        </g>
        <g id="Group-3" opacity="0.1" transform="translate(121.000000, 56.000000)" stroke="#FFFFFF" stroke-linecap="square" stroke-width="3">
            <path d="M185.5,0.5 L185.5,311.5" id="Line-Copy-23"></path>
            <path d="M162.5,0.5 L162.5,311.5" id="Line-Copy-22"></path>
            <path d="M139.5,0.5 L139.5,311.5" id="Line-Copy-21"></path>
            <path d="M116.5,0.5 L116.5,311.5" id="Line-Copy-20"></path>
            <path d="M93.5,0.5 L93.5,311.5" id="Line-Copy-19"></path>
            <path d="M70.5,0.5 L70.5,311.5" id="Line-Copy-18"></path>
            <path d="M47.5,0.5 L47.5,311.5" id="Line-Copy-17"></path>
            <path d="M24.5,0.5 L24.5,311.5" id="Line-Copy-16"></path>
            <path d="M1.5,0.5 L1.5,311.5" id="Line-Copy-15"></path>
        </g>
        <g id="Group-Copy" transform="translate(83.500000, 44.000000)">
            <g id="Rectangle-5" stroke-width="10">
                <path stroke="#FFFFFF" d="M94.0062866,5 L5,90.136448 L5,331 L252,331 L252,5 L94.0062866,5 Z"></path>
                <path stroke="#2879D2" d="M89.9937134,-5 L262,-5 L262,341 L-5,341 L-5,85.863552 L89.9937134,-5 Z"></path>
            </g>
            <g id="Path-Copy">
                <use fill="#FFFFFF" fill-rule="evenodd" xlink:href="#path-3"></use>
                <path stroke="#FFFFFF" stroke-width="20" d="M86,31.4033308 L28.9216641,86 L86,86 L86,31.4033308 Z"></path>
            </g>
        </g>
        <path d="M192.852734,200.394531 C201.085156,200.394531 205.977734,206.517578 205.977734,217.181641 C205.977734,227.816406 201.202343,233.998047 193.087109,233.998047 C188.370312,233.998047 184.913281,231.947266 183.389843,228.490234 L182.833203,228.490234 L182.833203,244.28125 L172.491406,244.28125 L172.491406,200.892578 L182.569531,200.892578 L182.569531,206.195312 L183.126171,206.195312 C184.737499,202.5625 188.341015,200.394531 192.852734,200.394531 Z M189.073437,225.853516 C193.028515,225.853516 195.342968,222.601562 195.342968,217.181641 C195.342968,211.820312 192.999218,208.539062 189.073437,208.539062 C185.176953,208.539062 182.774609,211.820312 182.774609,217.210938 C182.774609,222.630859 185.147656,225.853516 189.073437,225.853516 Z M246.511719,200.892578 L246.511719,233.5 L236.433594,233.5 L236.433594,228.226562 L235.876953,228.226562 C234.353516,232.064453 231.541016,234.261719 226.619141,234.261719 C219.705078,234.261719 215.046875,229.720703 215.046875,222.191406 L215.046875,200.892578 L225.388672,200.892578 L225.388672,219.642578 C225.388672,223.626953 227.351562,225.736328 230.691406,225.736328 C234.236328,225.736328 236.140625,223.333984 236.140625,219.525391 L236.140625,200.892578 L246.511719,200.892578 Z M278.256641,233.998047 C273.627735,233.998047 269.965626,231.917969 268.412891,228.402344 L267.856251,228.402344 L267.856251,233.5 L257.778126,233.5 L257.778126,188.675781 L268.119922,188.675781 L268.119922,206.136719 L268.676563,206.136719 C270.258594,202.503906 273.774219,200.394531 278.256641,200.394531 C286.51836,200.394531 291.264454,206.546875 291.264454,217.181641 C291.264454,227.757812 286.430469,233.998047 278.256641,233.998047 Z M274.389454,208.539062 C270.522266,208.539062 268.090626,211.878906 268.061329,217.210938 C268.090626,222.542969 270.492969,225.853516 274.389454,225.853516 C278.256641,225.853516 280.629688,222.542969 280.629688,217.181641 C280.629688,211.878906 278.227344,208.539062 274.389454,208.539062 Z M154.225977,223.890625 L163.688867,223.890625 C162.546289,230.248047 156.569727,234.261719 148.132227,234.261719 C137.731836,234.261719 131.755274,228.109375 131.755274,217.416016 C131.755274,206.664062 137.878321,200.130859 147.985742,200.130859 C158.034571,200.130859 163.893946,206.224609 163.893946,216.625 L163.893946,219.496094 L141.950586,219.496094 L141.950586,220.023438 C142.038477,224.271484 144.470117,226.908203 148.425196,226.908203 C151.442774,226.908203 153.522852,225.794922 154.225977,223.890625 Z M148.044336,207.484375 C144.645899,207.484375 142.272852,209.857422 142.00918,213.548828 L153.845117,213.548828 C153.669336,209.740234 151.501367,207.484375 148.044336,207.484375 Z" id="Epub" fill="#FFFFFF"></path>
    </g>
</svg>