<?xml version="1.0" encoding="UTF-8"?>
<svg width="424px" height="424px" viewBox="0 0 424 424" version="1.1" xmlns="http://www.w3.org/2000/svg" xmlns:xlink="http://www.w3.org/1999/xlink">
    <!-- Generator: Sketch 49.1 (51147) - http://www.bohemiancoding.com/sketch -->
    <title>github</title>
    <desc>Created with Sketch.</desc>
    <defs></defs>
    <g id="github" stroke="none" stroke-width="1" fill="none" fill-rule="evenodd">
        <path d="M41.8740671,216.253292 C41.8740671,292.359308 91.2293434,356.927194 159.670105,379.703947 C168.278683,381.298462 171.439155,375.967247 171.439155,371.417602 C171.439155,367.310085 171.27942,353.741016 171.205257,339.347592 C123.284744,349.767564 113.172945,319.02394 113.172945,319.02394 C105.337371,299.113892 94.047526,293.819758 94.047526,293.819758 C78.4191633,283.128804 95.2255719,283.348442 95.2255719,283.348442 C112.522595,284.563583 121.630345,301.099191 121.630345,301.099191 C136.993434,327.43294 161.926363,319.819771 171.755773,315.418452 C173.30178,304.28537 177.765804,296.686463 182.691918,292.38498 C144.432523,288.0293 104.213521,273.259354 104.213521,207.256689 C104.213521,188.450536 110.942359,173.084429 121.961225,161.02145 C120.172763,156.682885 114.276828,139.163184 123.629886,115.436568 C123.629886,115.436568 138.094465,110.807054 171.011293,133.093186 C184.75136,129.276618 199.486917,127.362629 214.125493,127.297023 C228.764069,127.362629 243.511037,129.276618 257.276775,133.093186 C290.15367,110.807054 304.598282,115.436568 304.598282,115.436568 C313.974158,139.163184 308.075371,156.682885 306.286909,161.02145 C317.331446,173.084429 324.014647,188.450536 324.014647,207.256689 C324.014647,273.416238 283.718629,287.983661 245.362252,292.248063 C251.540575,297.59354 257.045729,308.076266 257.045729,324.146926 C257.045729,347.194661 256.84606,365.744094 256.84606,371.417602 C256.84606,376.001477 259.946632,381.372626 268.677863,379.681127 C337.081544,356.878703 386.374067,292.333636 386.374067,216.253292 C386.374067,121.118633 309.253417,44 214.125493,44 C119.006127,44 41.8740671,121.118633 41.8740671,216.253292 Z" id="Fill-5" fill="#FFFFFF"></path>
    </g>
</svg>