<?xml version="1.0" encoding="UTF-8"?>
<svg width="424px" height="424px" viewBox="0 0 424 424" version="1.1" xmlns="http://www.w3.org/2000/svg" xmlns:xlink="http://www.w3.org/1999/xlink">
    <!-- Generator: Sketch 49.1 (51147) - http://www.bohemiancoding.com/sketch -->
    <title>latex</title>
    <desc>Created with Sketch.</desc>
    <defs>
        <polygon id="path-1" points="92 0 257 0 257 336 0 336 0 88"></polygon>
        <polygon id="path-2" points="92 0 257 0 257 336 0 336 0 88"></polygon>
        <polygon id="path-3" points="96 8 96 96 4 96"></polygon>
    </defs>
    <g id="latex" stroke="none" stroke-width="1" fill="none" fill-rule="evenodd">
        <g id="Group" transform="translate(83.500000, 44.000000)">
            <g id="Rectangle-5">
                <use fill="#2E7BCF" fill-rule="evenodd" xlink:href="#path-1"></use>
                <path stroke="#FFFFFF" stroke-width="10" d="M94.0062866,5 L5,90.136448 L5,331 L252,331 L252,5 L94.0062866,5 Z"></path>
            </g>
        </g>
        <g id="Group-2" opacity="0.1" transform="translate(84.273438, 69.000000)" stroke="#FFFFFF" stroke-linecap="square" stroke-width="3">
            <path d="M0.855925008,291 L256.880718,291" id="Line-2-Copy-24"></path>
            <path d="M0.855925008,272 L256.880718,272" id="Line-2-Copy-23"></path>
            <path d="M0.855925008,253 L256.880718,253" id="Line-2-Copy-22"></path>
            <path d="M0.855925008,234 L256.880718,234" id="Line-2-Copy-21"></path>
            <path d="M0.855925008,215 L256.880718,215" id="Line-2-Copy-20"></path>
            <path d="M0.855925008,196 L256.880718,196" id="Line-2-Copy-19"></path>
            <path d="M0.855925008,177 L256.880718,177" id="Line-2-Copy-18"></path>
            <path d="M0.855925008,158 L256.880718,158" id="Line-2-Copy-17"></path>
            <path d="M0.855925008,139 L256.880718,139" id="Line-2-Copy-16"></path>
            <path d="M0.855925008,120 L256.880718,120" id="Line-2-Copy-15"></path>
            <path d="M0.855925008,101 L256.880718,101" id="Line-2-Copy-14"></path>
            <path d="M0.855925008,82 L256.880718,82" id="Line-2-Copy-13"></path>
            <path d="M0.855925008,63 L256.880718,63" id="Line-2-Copy-12"></path>
            <path d="M0.855925008,44 L256.880718,44" id="Line-2-Copy-11"></path>
            <path d="M0.855925008,25 L256.880718,25" id="Line-2-Copy-10"></path>
            <path d="M0.855925008,6 L256.880718,6" id="Line-2-Copy-9"></path>
        </g>
        <g id="Group-3" opacity="0.1" transform="translate(121.000000, 56.000000)" stroke="#FFFFFF" stroke-linecap="square" stroke-width="3">
            <path d="M185.5,0.5 L185.5,311.5" id="Line-Copy-23"></path>
            <path d="M162.5,0.5 L162.5,311.5" id="Line-Copy-22"></path>
            <path d="M139.5,0.5 L139.5,311.5" id="Line-Copy-21"></path>
            <path d="M116.5,0.5 L116.5,311.5" id="Line-Copy-20"></path>
            <path d="M93.5,0.5 L93.5,311.5" id="Line-Copy-19"></path>
            <path d="M70.5,0.5 L70.5,311.5" id="Line-Copy-18"></path>
            <path d="M47.5,0.5 L47.5,311.5" id="Line-Copy-17"></path>
            <path d="M24.5,0.5 L24.5,311.5" id="Line-Copy-16"></path>
            <path d="M1.5,0.5 L1.5,311.5" id="Line-Copy-15"></path>
        </g>
        <g id="Group-Copy" transform="translate(83.500000, 44.000000)">
            <g id="Rectangle-5" stroke-width="10">
                <path stroke="#FFFFFF" d="M94.0062866,5 L5,90.136448 L5,331 L252,331 L252,5 L94.0062866,5 Z"></path>
                <path stroke="#2879D2" d="M89.9937134,-5 L262,-5 L262,341 L-5,341 L-5,85.863552 L89.9937134,-5 Z"></path>
            </g>
            <g id="Path-Copy">
                <use fill="#FFFFFF" fill-rule="evenodd" xlink:href="#path-3"></use>
                <path stroke="#FFFFFF" stroke-width="20" d="M86,31.4033308 L28.9216641,86 L86,86 L86,31.4033308 Z"></path>
            </g>
        </g>
        <path d="M146.377928,224.623047 L146.377928,233.5 L117.666991,233.5 L117.666991,191.224609 L128.418944,191.224609 L128.418944,224.623047 L146.377928,224.623047 Z M168.806445,226.761719 C172.087695,226.761719 174.636523,224.59375 174.636523,221.78125 L174.636523,219.642578 L169.158007,219.994141 C166.081835,220.228516 164.470507,221.429688 164.470507,223.392578 C164.470507,225.472656 166.199023,226.761719 168.806445,226.761719 Z M165.027148,233.998047 C158.757616,233.998047 154.480273,230.101562 154.480273,224.125 C154.480273,218.177734 159.109179,214.720703 167.517382,214.222656 L174.636523,213.8125 L174.636523,211.263672 C174.636523,209.066406 172.995898,207.748047 170.124804,207.748047 C167.400195,207.748047 165.642382,208.65625 164.968554,210.384766 L155.652148,210.384766 C156.120898,204.056641 161.892382,200.130859 170.710741,200.130859 C179.704882,200.130859 184.831835,204.232422 184.831835,211.263672 L184.831835,233.5 L174.75371,233.5 L174.75371,229.457031 L174.19707,229.457031 C172.732226,232.240234 169.158007,233.998047 165.027148,233.998047 Z M212.973242,233.5 L202.250586,233.5 L202.250586,199.867188 L190.063086,199.867188 L190.063086,191.224609 L225.190039,191.224609 L225.190039,199.867188 L212.973242,199.867188 L212.973242,233.5 Z M244.044336,207.484375 C240.645899,207.484375 238.272852,209.857422 238.00918,213.548828 L249.845117,213.548828 C249.669336,209.740234 247.501367,207.484375 244.044336,207.484375 Z M250.225977,223.890625 L259.688867,223.890625 C258.546289,230.248047 252.569727,234.261719 244.132227,234.261719 C233.731836,234.261719 227.755274,228.109375 227.755274,217.416016 C227.755274,206.664062 233.878321,200.130859 243.985742,200.130859 C254.034571,200.130859 259.893946,206.224609 259.893946,216.625 L259.893946,219.496094 L237.950586,219.496094 L237.950586,220.023438 C238.038477,224.271484 240.470117,226.908203 244.425196,226.908203 C247.442774,226.908203 249.522852,225.794922 250.225977,223.890625 Z M265.593946,233.5 L278.572462,212.171875 L265.623243,191.224609 L278.162305,191.224609 L285.750196,205.228516 L286.306837,205.228516 L293.953321,191.224609 L305.906446,191.224609 L292.400587,212.289062 L305.789259,233.5 L293.689649,233.5 L285.662305,220.111328 L285.105665,220.111328 L277.019727,233.5 L265.593946,233.5 Z" id="LaTeX" fill="#FFFFFF"></path>
    </g>
</svg>