<?xml version="1.0" encoding="UTF-8"?>
<svg width="900px" height="306px" viewBox="0 0 900 306" version="1.1" xmlns="http://www.w3.org/2000/svg" xmlns:xlink="http://www.w3.org/1999/xlink">
    <!-- Generator: Sketch 49.1 (51147) - http://www.bohemiancoding.com/sketch -->
    <title>Artboard 2 Copy 2</title>
    <desc>Created with Sketch.</desc>
    <defs></defs>
    <g id="Artboard-2-Copy-2" stroke="none" stroke-width="1" fill="none" fill-rule="evenodd">
        <path d="M646.471486,201.178409 C636.82742,202.114259 626.517644,203.092905 615.542157,204.114346 L591.512548,208.909074 C591.619954,209.824942 591.675335,210.758683 591.675335,211.706613 C591.675335,223.69624 582.815626,233.415753 571.88662,233.415753 C562.514229,233.415753 554.663654,226.267762 552.617475,216.66997 L488.90038,229.383707 C479.474922,241.855503 465.479541,248.416412 449.855753,248.416412 C433.399861,248.416412 418.750451,242.243987 409.344503,228.735009 L345.188482,217.008055 C343.031877,226.435141 335.256049,233.415753 325.994042,233.415753 C315.065036,233.415753 306.205326,223.69624 306.205326,211.706613 C306.205326,211.096476 306.22827,210.492217 306.273263,209.894818 L274.649357,204.114346 C267.388242,203.260527 260.441195,202.437325 253.808217,201.644741 C253.892973,202.352606 253.936703,203.074644 253.936703,203.807887 C253.936703,212.892923 247.223335,220.2578 238.941975,220.2578 C230.660616,220.2578 223.947247,212.892923 223.947247,203.807887 C223.947247,201.814131 224.270567,199.903218 224.862823,198.134809 C174.117113,191.875894 148.744259,188.090514 148.744259,186.778669 C148.744259,185.903989 175.742186,187.251267 229.738042,190.820503 C232.278653,188.650483 235.472726,187.357975 238.941975,187.357975 C243.068432,187.357975 246.805579,189.186567 249.516849,192.145406 C267.815216,193.385642 288.605556,194.83097 311.88787,196.48139 C315.477518,192.479148 320.471604,189.997474 325.994042,189.997474 C332.440987,189.997474 338.16787,193.37961 341.780843,198.614765 C359.791872,199.908104 379.063272,201.305173 399.595044,202.805972 C398.854379,198.0601 398.464605,192.915158 398.464605,187.357975 C398.464605,183.314808 398.716222,179.489856 399.191614,175.878047 C358.342705,172.552234 337.918251,170.280677 337.918251,169.063379 C337.918251,167.835911 358.685383,168.11432 400.219646,169.898606 C406.248007,141.754905 426.773951,128.274022 445.581866,126.501976 C446.068637,80.5563843 447.361785,57.5835882 449.461311,57.5835882 C451.560155,57.5835882 452.853145,80.5414714 453.340281,126.457238 C472.114108,128.141126 492.836696,143.270042 499.247709,169.911394 C547.589291,168.059827 571.760082,167.777155 571.760082,169.063379 C571.760082,170.339097 547.98251,172.651769 500.427365,176.001393 C500.962574,179.604362 501.2469,183.391215 501.2469,187.357975 C501.2469,192.82257 500.804447,197.945742 499.966565,202.717098 C519.882469,201.212507 538.614388,199.815066 556.162323,198.524775 C559.778573,193.340887 565.476688,189.997474 571.88662,189.997474 C577.353119,189.997474 582.301917,192.429128 585.88328,196.360241 C610.29609,194.600877 632.005425,193.086177 651.011284,191.816141 C653.693956,189.051503 657.304542,187.357975 661.275681,187.357975 C664.603856,187.357975 667.678779,188.547503 670.166462,190.560157 C723.142223,187.16049 750.15029,186.11089 751.190665,187.411358 C752.715183,189.317006 727.454071,192.944587 675.407329,198.294102 C675.966169,200.017771 676.270409,201.873851 676.270409,203.807887 C676.270409,212.892923 669.557041,220.2578 661.275681,220.2578 C652.994322,220.2578 646.280953,212.892923 646.280953,203.807887 C646.280953,202.912902 646.346104,202.034611 646.471486,201.178409 Z M409.814813,165.113574 L404.999998,180.625788 L409.814813,186.520429 L423.271604,180.625788 L475.246915,180.625788 L489.444446,186.520429 L495.000002,181.866765 L490.4321,165.113574 L482.283952,161.545765 L470.80247,159.994544 L450,161.545765 L428.209876,159.994544 L416.234567,161.545765 L409.814813,165.113574 Z" id="Path-10" fill="#FFFFFF">
		  <animate attributeType="CSS" attributeName="opacity" from="0" to="1" dur="1s" repeatCount="1" />
        </path>
        <path d="M116.960938,55.4164118 L116.960938,257.416412 L116.960938,55.4164118 Z M104.960938,53.9164118 L128.981762,53.9164118 L104.960938,53.9164118 Z M104.960938,257.916412 L128.981762,257.916412 L104.960938,257.916412 Z" id="Line-3" stroke-opacity="0.665307971" stroke="#9DDCFF" stroke-width="3" stroke-linecap="round" opacity="0" stroke-linejoin="round">
		  <animate attributeType="CSS" attributeName="opacity" from="0" to="1" dur="1s" begin="1s" fill="freeze"  repeatCount="1" />
        </path>
        <path d="M450.104551,-264.985293 L438.104551,-264.985293 L450.104551,-264.985293 L450.104551,-264.999528 L450.104551,-264.985293 Z M450.104551,-264.985293 L462.125375,-264.985293 L450.104551,-264.985293 L450.104551,335.249528 L450.104551,-264.985293 Z M438.104551,336.735293 L462.125375,336.735293 L438.104551,336.735293 Z" id="Line-3-Copy" stroke-opacity="0.665307971" stroke="#9DDCFF" stroke-width="3" stroke-linecap="round" opacity="0" stroke-linejoin="round" transform="translate(450.104551, 35.875000) rotate(90.000000) translate(-450.104551, -35.875000) ">
		  <animate attributeType="CSS" attributeName="opacity" from="0" to="1" dur="1s" begin="2s" fill="freeze" repeatCount="1" />        	
        </path>
    </g>
</svg>