<?xml version="1.0" encoding="UTF-8"?>
<svg width="925px" height="930px" viewBox="0 0 925 930" version="1.1" xmlns="http://www.w3.org/2000/svg" xmlns:xlink="http://www.w3.org/1999/xlink">
    <!-- Generator: Sketch 49.1 (51147) - http://www.bohemiancoding.com/sketch -->
    <title>Fig1</title>
    <desc>Created with Sketch.</desc>
    <defs></defs>
    <g id="Fig1" stroke="none" stroke-width="1" fill="none" fill-rule="evenodd">
        <path d="M292.463995,681.599804 C290.292372,679.526892 290.292372,679.428181 292.069155,677.750109 C293.056256,676.763008 318.91831,657.119692 349.617161,634.021522 C401.736109,594.73489 405.783224,591.477456 411.903253,583.778065 C415.456817,579.33611 418.714252,575.091574 419.010382,574.499313 C420.293614,572.22898 410.620021,571.538009 309.639558,566.306372 C292.069155,565.319271 289.305271,564.924431 265.121289,559.396663 C250.907031,556.139229 235.804381,552.585664 231.658555,551.499853 L223.959165,549.52565 L204.315849,557.422461 C185.857055,564.82572 183.882852,565.319271 172.827318,566.602503 C163.745986,567.490894 161.080812,567.589604 161.080812,566.602503 C161.080812,566.010242 169.471173,560.186344 179.737027,553.770186 L198.393241,542.02368 L194.839677,540.049478 C190.693851,537.779145 188.423518,532.547508 189.311909,527.710712 C189.90417,525.144248 190.693851,524.551987 194.938387,523.268756 C197.70227,522.479075 201.157125,521.788104 202.736487,521.788104 C204.217139,521.788104 205.500371,521.491973 205.500371,521.195843 C205.500371,520.899713 196.320329,505.303512 185.067374,486.647298 C173.913129,467.991083 164.930507,452.493593 165.127928,452.296172 C166.213739,451.210361 188.818359,449.630999 190.00288,450.42068 C190.595141,451.012941 201.650676,459.699432 214.384282,469.866575 C227.117889,480.033719 237.679873,487.930529 237.877293,487.436979 C238.074714,486.844718 240.443757,486.647298 243.799901,486.844718 C253.967045,487.733109 253.473494,487.338268 254.460595,495.333789 L255.348986,502.440918 L263.541927,509.153207 L271.833578,515.865496 L279.335548,515.371945 C283.580084,515.075815 326.6177,513.002902 375.183084,510.831279 C423.748468,508.659657 463.726071,506.685454 464.022201,506.389324 C464.318332,506.093193 464.713172,489.904732 464.910592,470.360126 L465.305433,434.923189 L467.378346,434.923189 C468.562867,434.923189 473.399664,435.61416 478.13775,436.502551 L486.725531,438.081914 L490.575226,448.051637 C492.648139,453.579404 498.373326,468.583344 503.111413,481.316951 C507.948209,494.050557 511.896614,504.612541 511.896614,504.711251 C511.995324,504.711251 544.668377,503.329309 584.54727,501.453817 C646.241101,498.591223 659.369548,498.295093 672.399286,499.084774 C704.282658,501.157687 711.982048,503.230599 727.380828,513.792583 C730.539552,515.964206 735.475059,518.62938 738.238942,519.715191 C745.346072,522.479075 750.873839,526.32877 752.255781,529.290074 C754.229983,533.633319 753.637723,539.950768 751.071259,542.319811 C744.06284,548.93339 707.638802,559.692794 688.883877,560.778605 C683.35611,561.173446 646.339811,562.456677 606.757049,563.739909 C567.075577,565.023141 533.415423,566.503793 532.033481,567.096053 C526.308293,569.267676 505.184325,573.117371 498.866877,573.117371 L492.253298,573.117371 L477.446779,583.087095 C469.352548,588.516152 463.528651,592.760687 464.614462,592.464557 C469.846099,591.082615 490.772646,588.910992 494.227501,589.503253 C503.802384,590.983905 507.948209,601.447179 503.999804,614.476916 C501.23592,623.755668 501.0385,623.854378 481.493894,623.163407 C464.713172,622.472436 454.151188,621.287915 434.804003,617.73435 L424.636859,615.957568 L412.100673,623.262117 C377.946968,643.201564 317.733789,677.453979 311.61376,680.415283 C303.124689,684.462398 296.01756,684.857239 292.463995,681.599804 Z" id="Shape" stroke="#979797" stroke-width="10" fill="#C4C4C4" fill-rule="nonzero" transform="translate(457.255859, 559.350977) rotate(15.000000) translate(-457.255859, -559.350977) "></path>
        <path d="M665.707815,584.66217 L613.988259,488.974144 L613.903508,488.974144 C613.908124,488.930418 613.912748,488.886707 613.917381,488.843011 L613.903508,488.817344 L613.917381,488.843011 C620.558585,426.210526 645.55396,394.894283 688.903508,394.894283 C732.26322,394.894283 757.260152,426.225213 763.894304,488.887071 L763.903508,488.870161 L763.894304,488.887071 C763.897376,488.916089 763.900444,488.945113 763.903508,488.974144 L763.846908,488.974144 L711.972311,584.274898 C711.972313,584.274899 711.972313,584.274899 711.972313,584.274899 L763.846908,488.974144 L763.672942,488.974144 C761.961005,473.746869 751.530628,462.032994 738.919188,462.032994 C726.307747,462.032994 715.87737,473.746869 714.165434,488.974144 L713.87488,488.974144 L699.456622,567.944739 C699.456622,567.944739 699.456622,567.944739 699.456622,567.944739 L713.87488,488.974144 L713.672942,488.974144 C711.961005,473.746869 701.530628,462.032994 688.919188,462.032994 C676.307747,462.032994 665.87737,473.746869 664.165434,488.974144 L664.043181,488.974144 L678.134865,568.072388 C678.134865,568.072388 678.134865,568.072388 678.134865,568.072388 L664.043181,488.974144 L663.672942,488.974144 C661.961005,473.746869 651.530628,462.032994 638.919188,462.032994 C626.307747,462.032994 615.87737,473.746869 614.165434,488.974144 L613.988259,488.974144 L665.707815,584.66217 C665.707813,584.662171 665.707813,584.662171 665.707813,584.662171 Z" id="Oval" stroke="#CB573F" stroke-width="3.02250004" fill="#F7FF00" stroke-linecap="round" stroke-linejoin="round"></path>
        <path d="M259.039447,491.028967 L207.319891,395.340941 L207.235141,395.340941 C207.239756,395.297215 207.244381,395.253504 207.249014,395.209808 L207.235141,395.184141 L207.249014,395.209808 C213.890217,332.577323 238.885593,301.26108 282.235141,301.26108 C325.594853,301.26108 350.591784,332.592009 357.225936,395.253868 L357.235141,395.236958 L357.225936,395.253868 C357.229008,395.282886 357.232077,395.31191 357.235141,395.340941 L357.17854,395.340941 L305.303944,490.641695 C305.303946,490.641696 305.303946,490.641696 305.303946,490.641696 L357.17854,395.340941 L357.004574,395.340941 C355.292638,380.113665 344.862261,368.399791 332.25082,368.399791 C319.63938,368.399791 309.209003,380.113665 307.497066,395.340941 L307.206513,395.340941 L292.788255,474.311535 C292.788255,474.311535 292.788255,474.311535 292.788255,474.311535 L307.206513,395.340941 L307.004574,395.340941 C305.292638,380.113665 294.862261,368.399791 282.25082,368.399791 C269.63938,368.399791 259.209003,380.113665 257.497066,395.340941 L257.374814,395.340941 L271.466498,474.439185 C271.466498,474.439185 271.466498,474.439185 271.466498,474.439185 L257.374814,395.340941 L257.004574,395.340941 C255.292638,380.113665 244.862261,368.399791 232.25082,368.399791 C219.63938,368.399791 209.209003,380.113665 207.497066,395.340941 L207.319891,395.340941 L259.039447,491.028967 C259.039446,491.028968 259.039446,491.028968 259.039446,491.028968 Z" id="Oval-Copy" stroke="#CB573F" stroke-width="3.02250004" fill="#F7FF00" stroke-linecap="round" stroke-linejoin="round"></path>
        <path d="M294.418875,624.086229 L258.215186,570.688814 L258.15586,570.688814 C258.159091,570.664414 258.162328,570.640021 258.165571,570.615637 L258.15586,570.601314 L258.165571,570.615637 C262.814414,535.664422 280.311177,518.188814 310.65586,518.188814 C341.007659,518.188814 358.505511,535.672618 363.149417,570.640225 L363.15586,570.630788 L363.149417,570.640225 C363.151568,570.656417 363.153715,570.672614 363.15586,570.688814 L363.11624,570.688814 L326.804022,623.870117 C326.804024,623.870118 326.804024,623.870118 326.804024,623.870118 L363.11624,570.688814 L362.994464,570.688814 C361.796108,562.191438 354.494844,555.654668 345.666836,555.654668 C336.838827,555.654668 329.537564,562.191438 328.339208,570.688814 L328.135821,570.688814 L318.04304,614.757291 C318.04304,614.757291 318.04304,614.757291 318.04304,614.757291 L328.135821,570.688814 L327.994464,570.688814 C326.796108,562.191438 319.494844,555.654668 310.666836,555.654668 C301.838827,555.654668 294.537564,562.191438 293.339208,570.688814 L293.253631,570.688814 L303.11781,614.828524 C303.11781,614.828524 303.11781,614.828524 303.11781,614.828524 L293.253631,570.688814 L292.994464,570.688814 C291.796108,562.191438 284.494844,555.654668 275.666836,555.654668 C266.838827,555.654668 259.537564,562.191438 258.339208,570.688814 L258.215186,570.688814 L294.418875,624.086229 C294.418874,624.086229 294.418874,624.086229 294.418874,624.086229 Z" id="Oval-Copy-2" stroke="#CB573F" stroke-width="2.11575003" fill="#F7FF00" stroke-linecap="round" stroke-linejoin="round"></path>
        <path d="M493.54396,469.022473 L468.201377,431.644283 L468.159849,431.644283 C468.162111,431.627203 468.164377,431.610128 468.166647,431.593059 L468.159849,431.583033 L468.166647,431.593059 C471.420837,407.127209 483.668571,394.894283 504.909849,394.894283 C526.156108,394.894283 538.404605,407.132946 541.655339,431.61027 L541.659849,431.603665 L541.655339,431.61027 C541.656845,431.621605 541.658348,431.632943 541.659849,431.644283 L541.632115,431.644283 L516.213563,468.871195 C516.213564,468.871195 516.213564,468.871195 516.213564,468.871195 L541.632115,431.644283 L541.546872,431.644283 C540.708023,425.69612 535.597138,421.120381 529.417532,421.120381 C523.237926,421.120381 518.127042,425.69612 517.288193,431.644283 L517.145822,431.644283 L510.080875,462.492217 C510.080875,462.492217 510.080875,462.492217 510.080875,462.492217 L517.145822,431.644283 L517.046872,431.644283 C516.208023,425.69612 511.097138,421.120381 504.917532,421.120381 C498.737926,421.120381 493.627042,425.69612 492.788193,431.644283 L492.728289,431.644283 L499.633214,462.54208 C499.633214,462.54208 499.633214,462.54208 499.633214,462.54208 L492.728289,431.644283 L492.546872,431.644283 C491.708023,425.69612 486.597138,421.120381 480.417532,421.120381 C474.237926,421.120381 469.127042,425.69612 468.288193,431.644283 L468.201377,431.644283 L493.54396,469.022473 C493.543959,469.022474 493.543959,469.022474 493.543959,469.022474 Z" id="Oval-Copy-3" stroke="#CB573F" stroke-width="1.48102502" fill="#F7FF00" stroke-linecap="round" stroke-linejoin="round"></path>
        <path d="M440.31561,538.239469 L378.252142,390.993017 L378.150442,390.993017 C378.15598,390.92573 378.161529,390.858467 378.167089,390.791227 L378.150442,390.75173 L378.167089,390.791227 C386.136533,294.411233 416.130984,246.221236 468.150442,246.221236 C520.182096,246.221236 550.178414,294.433833 558.139396,390.859027 L558.150442,390.833006 L558.139396,390.859027 C558.143083,390.90368 558.146765,390.948343 558.150442,390.993017 L558.082521,390.993017 L495.833005,537.643529 C495.833008,537.64353 495.833008,537.64353 495.833008,537.64353 L558.082521,390.993017 L557.873762,390.993017 C555.819438,367.561011 543.302986,349.53549 528.169257,349.53549 C513.035528,349.53549 500.519076,367.561011 498.464752,390.993017 L498.116088,390.993017 L480.814179,512.514386 C480.814179,512.514386 480.814179,512.514386 480.814179,512.514386 L498.116088,390.993017 L497.873762,390.993017 C495.819438,367.561011 483.302986,349.53549 468.169257,349.53549 C453.035528,349.53549 440.519076,367.561011 438.464752,390.993017 L438.318049,390.993017 L455.22807,512.710815 C455.22807,512.710815 455.22807,512.710815 455.22807,512.710815 L438.318049,390.993017 L437.873762,390.993017 C435.819438,367.561011 423.302986,349.53549 408.169257,349.53549 C393.035528,349.53549 380.519076,367.561011 378.464752,390.993017 L378.252142,390.993017 L440.31561,538.239469 C440.315607,538.239471 440.315607,538.239471 440.315607,538.239471 Z" id="Oval-Copy-4" stroke="#CB573F" stroke-width="3.62700005" fill="#F7FF00" stroke-linecap="round" stroke-linejoin="round"></path>
    </g>
</svg>