<?xml version="1.0" encoding="UTF-8"?>
<svg width="925px" height="930px" viewBox="0 0 925 930" version="1.1" xmlns="http://www.w3.org/2000/svg" xmlns:xlink="http://www.w3.org/1999/xlink">
    <!-- Generator: Sketch 49.1 (51147) - http://www.bohemiancoding.com/sketch -->
    <title>Fig5</title>
    <desc>Created with Sketch.</desc>
    <defs>
        <rect id="path-1" x="0" y="373.609375" width="925" height="556.390625"></rect>
    </defs>
    <g id="Fig5" stroke="none" stroke-width="1" fill="none" fill-rule="evenodd">
        <g id="Rectangle">
            <use fill="#86ADFF" fill-rule="evenodd" xlink:href="#path-1"></use>
            <rect stroke="#979797" stroke-width="1" x="0.5" y="374.109375" width="924" height="555.390625"></rect>
        </g>
        <path d="M129,604.25 C108,614.25 102,627.25 102,641.25 C102,655.25 102,668.25 122,679.25 C142,690.25 393,770.25 432,770.25 C471,770.25 775,684.25 796,673.75 C817,663.25 822,645.25 822,632.25 C822,619.25 827,604.25 808,590.25 C789,576.25 530,513.25 496,513.25 C462,513.25 150,594.25 129,604.25 Z" id="Path-2" stroke="#CB573F" stroke-width="6.3" fill="#F7FF00"></path>
        <g id="Cube" transform="translate(180.000000, 413.273438)">
            <polygon id="path" fill="#C4C4C4" fill-rule="nonzero" points="282.285156 0.445651815 0 64.9032941 282.285156 129.360934 564.570312 64.9032941"></polygon>
            <polygon id="path" fill="#C4C4C4" fill-rule="nonzero" points="282.285156 129.360934 282.285156 290.505033 564.570312 226.047393 564.570312 64.9032941"></polygon>
            <polygon id="path" fill="#C4C4C4" fill-rule="nonzero" points="282.285156 129.360934 282.285156 290.505033 0 226.047393 0 64.9032941"></polygon>
            <polygon id="path" stroke="#979797" stroke-width="10" points="282.285156 0.528267172 0 64.9859095 0 226.130009 282.285156 290.587648 564.570312 226.130009 564.570312 64.9859095"></polygon>
        </g>
        <path d="M279.208416,488.284248 L195.137763,320.608991 L195,320.608991 C195.007502,320.532369 195.015019,320.455774 195.022551,320.379205 L195,320.334229 L195.022551,320.379205 C205.817893,210.627561 246.448125,155.751739 316.913247,155.751739 C387.394891,155.751739 428.027653,210.653297 438.811532,320.456412 L438.826495,320.426781 L438.811532,320.456412 C438.816526,320.50726 438.821514,320.55812 438.826495,320.608991 L438.73449,320.608991 L354.411817,487.605628 C354.41182,487.605629 354.41182,487.605629 354.41182,487.605629 L438.73449,320.608991 L438.451706,320.608991 C435.668937,293.926056 418.714255,273.399695 398.214233,273.399695 C377.71421,273.399695 360.759528,293.926056 357.976759,320.608991 L357.504461,320.608991 L334.067439,458.990096 C334.067439,458.990096 334.067439,458.990096 334.067439,458.990096 L357.504461,320.608991 L357.176208,320.608991 C354.393439,293.926056 337.438757,273.399695 316.938734,273.399695 C296.438712,273.399695 279.48403,293.926056 276.701261,320.608991 L276.502538,320.608991 L299.408711,459.213778 C299.408711,459.213778 299.408711,459.213778 299.408711,459.213778 L276.502538,320.608991 L275.90071,320.608991 C273.11794,293.926056 256.163259,273.399695 235.663236,273.399695 C215.163214,273.399695 198.208532,293.926056 195.425763,320.608991 L195.137763,320.608991 L279.208416,488.284248 C279.208414,488.28425 279.208414,488.28425 279.208414,488.28425 Z" id="Oval-Copy-2" stroke="#CB573F" stroke-width="3.17362504" fill="#F7FF00" stroke-linecap="round" stroke-linejoin="round"></path>
        <path d="M563.708416,492.131035 L479.637763,324.455778 L479.5,324.455778 C479.507502,324.379156 479.515019,324.30256 479.522551,324.225992 L479.5,324.181016 L479.522551,324.225992 C490.317893,214.474348 530.948125,159.598526 601.413247,159.598526 C671.894891,159.598526 712.527653,214.500084 723.311532,324.303199 L723.326495,324.273567 L723.311532,324.303199 C723.316526,324.354047 723.321514,324.404906 723.326495,324.455778 L723.23449,324.455778 L638.911817,491.452414 C638.91182,491.452416 638.91182,491.452416 638.91182,491.452416 L723.23449,324.455778 L722.951706,324.455778 C720.168937,297.772843 703.214255,277.246482 682.714233,277.246482 C662.21421,277.246482 645.259528,297.772843 642.476759,324.455778 L642.004461,324.455778 L618.567439,462.836883 C618.567439,462.836883 618.567439,462.836883 618.567439,462.836883 L642.004461,324.455778 L641.676208,324.455778 C638.893439,297.772843 621.938757,277.246482 601.438734,277.246482 C580.938712,277.246482 563.98403,297.772843 561.201261,324.455778 L561.002538,324.455778 L583.908711,463.060564 C583.908711,463.060564 583.908711,463.060564 583.908711,463.060564 L561.002538,324.455778 L560.40071,324.455778 C557.61794,297.772843 540.663259,277.246482 520.163236,277.246482 C499.663214,277.246482 482.708532,297.772843 479.925763,324.455778 L479.637763,324.455778 L563.708416,492.131035 C563.708414,492.131037 563.708414,492.131037 563.708414,492.131037 Z" id="Oval-Copy-3" stroke="#CB573F" stroke-width="3.17362504" fill="#F7FF00" stroke-linecap="round" stroke-linejoin="round"></path>
    </g>
</svg>